<?xml version="1.0" encoding="iso-8859-1"?>
<!-- Generator: Adobe Illustrator 19.0.0, SVG Export Plug-In . SVG Version: 6.00 Build 0)  -->
<svg version="1.1" id="Layer_1" xmlns="http://www.w3.org/2000/svg" xmlns:xlink="http://www.w3.org/1999/xlink" x="0px" y="0px"
	 viewBox="0 0 511.999 511.999" style="enable-background:new 0 0 511.999 511.999;" xml:space="preserve">
<g>
	<g>
		<g>
			<path d="M417.133,0H94.869C51.441,0,16.11,35.33,16.11,78.757V347.25c0,43.426,35.331,78.757,78.757,78.757h322.265
				c43.426,0,78.757-35.331,78.757-78.757V78.757C495.89,35.33,460.559,0,417.133,0z M185.943,105.544
				c1.332-0.136,2.681-0.136,4.014,0c10.711,1.098,18.414,10.062,18.414,20.319c0,10.116-7.62,19.209-18.414,20.306
				c-1.39,0.142-2.559,0.148-4.014,0c-10.768-1.094-18.414-10.139-18.414-20.306C167.529,115.58,175.269,106.638,185.943,105.544z
				 M118.874,105.544c1.332-0.136,2.681-0.136,4.015,0c10.68,1.096,18.413,10.077,18.413,20.319
				c0,10.167-7.662,19.213-18.413,20.306c-1.402,0.143-2.563,0.147-4.015,0c-10.837-1.123-18.402-10.164-18.402-20.306
				C100.473,115.697,108.048,106.676,118.874,105.544z M118.874,192.687c1.332-0.136,2.681-0.136,4.015,0
				c10.631,1.081,18.413,10.036,18.413,20.319c0,10.821-8.516,19.507-18.413,20.306c-1.384,0.142-2.572,0.148-4.015,0
				c-9.909-0.815-18.402-9.467-18.402-20.306C100.473,202.752,108.167,193.798,118.874,192.687z M256.004,320.562H120.887
				c-11.274,0-20.415-9.14-20.415-20.415s9.14-20.415,20.415-20.415h135.118c11.274,0,20.415,9.14,20.415,20.415
				S267.279,320.562,256.004,320.562z M258.007,233.313c-1.38,0.142-2.572,0.148-4.014,0c-9.996-0.823-18.414-9.6-18.414-20.306
				c0-10.503,7.977-19.237,18.414-20.319c1.332-0.136,2.681-0.136,4.014,0c10.522,1.068,18.414,9.886,18.414,20.319
				C276.421,223.782,267.939,232.511,258.007,233.313z M344.361,302.151c-1.015,9.994-8.854,17.346-18.305,18.305
				c-1.396,0.142-2.561,0.148-4.014,0c-9.467-0.981-17.289-8.299-18.305-18.305c-1.13-11.11,6.963-21.132,18.305-22.32
				c1.332-0.136,2.681-0.136,4.014,0C337.414,280.996,345.483,291.104,344.361,302.151z M393.124,320.456
				c-1.449,0.147-2.612,0.143-4.015,0c-9.938-0.814-18.413-9.551-18.413-20.306c0-10.514,7.963-19.246,18.413-20.319
				c1.335-0.136,2.682-0.136,4.015,0c10.938,1.145,18.4,10.293,18.4,20.319C411.525,310.879,403.094,319.626,393.124,320.456z
				 M393.124,233.313c-1.44,0.148-2.629,0.142-4.015,0c-10.85-1.105-18.413-10.247-18.413-20.306
				c0-10.546,8.046-19.263,18.413-20.319c1.335-0.136,2.682-0.136,4.015,0c10.953,1.135,18.4,10.35,18.4,20.319
				C411.525,223.029,404.048,232.18,393.124,233.313z M391.113,146.274H255.996c-11.274,0-20.415-9.14-20.415-20.415
				c0-11.274,9.14-20.415,20.415-20.415h135.117c11.274,0,20.415,9.14,20.415,20.415S402.389,146.274,391.113,146.274z"/>
			<path d="M321.59,446.42H190.413c-6.315,0-9.225,7.856-4.433,11.969l56.724,48.688c7.649,6.565,18.945,6.564,26.592,0
				l56.724-48.688C330.813,454.275,327.905,446.42,321.59,446.42z"/>
		</g>
	</g>
</g>
<g>
</g>
<g>
</g>
<g>
</g>
<g>
</g>
<g>
</g>
<g>
</g>
<g>
</g>
<g>
</g>
<g>
</g>
<g>
</g>
<g>
</g>
<g>
</g>
<g>
</g>
<g>
</g>
<g>
</g>
</svg>
